<?xml version="1.0" ?><!DOCTYPE svg  PUBLIC '-//W3C//DTD SVG 1.1//EN'  'http://www.w3.org/Graphics/SVG/1.1/DTD/svg11.dtd'><svg enable-background="new 0 0 48 48" id="Layer_1" version="1.1" viewBox="0 0 48 48" xml:space="preserve" xmlns="http://www.w3.org/2000/svg" xmlns:xlink="http://www.w3.org/1999/xlink"><g><g opacity="0.51"><rect fill="none" height="48" width="48" x="0" y="0"/></g><g><g><path d="M34.7,38.5L33,40.1c-0.6,0.6-1.3,0.9-1.6,0.6l-8.9-8.9c-0.3-0.3,0-1,0.6-1.6l6.1-6.1     c0.6-0.6,1.3-0.9,1.6-0.6l8.9,8.9c0.3,0.3,0,1-0.6,1.6l-1.7,1.7" fill="#FFFFFF"/></g><g><path d="M24.6,28.4L22.9,30c-0.6,0.6-1.3,0.8-1.6,0.5l-9.7-9.7c-0.3-0.3-0.1-1,0.5-1.6l6.1-6.1     c0.6-0.6,1.3-0.8,1.6-0.5l9.7,9.7c0.3,0.3,0.1,1-0.5,1.6l-1.7,1.7" fill="#B5C5FF"/></g><g><path d="M22.7,29.4L13,19.7c-0.3-0.3-0.1-1,0.5-1.6l5.5-5.5c-0.3,0.1-0.6,0.3-0.9,0.6l-6.1,6.1     c-0.6,0.6-0.8,1.3-0.5,1.6l9.7,9.7c0.3,0.3,1,0.1,1.6-0.5l0.5-0.5C23.2,29.6,22.9,29.6,22.7,29.4z" fill="#9EB3FF"/></g><g><path d="M8.1,15.6c0,1.9-1.4,2.9-3,2.9s-3-0.7-3-2.9c0-1.6,2.3-6.2,3-6.2C5.8,9.4,8.1,14,8.1,15.6z" fill="#B5C5FF"/></g><g><path d="M5.1,9.4C5,9.4,4.9,9.5,4.8,9.6C5.7,11,7,13.8,7,14.9c0,1.9-1.4,2.9-3,2.9c-0.4,0-0.8-0.1-1.2-0.2     c0.6,0.6,1.4,0.8,2.3,0.8c1.7,0,3-0.9,3-2.9C8.1,14,5.8,9.4,5.1,9.4z" fill="#9EB3FF"/></g><g><path d="M5.1,19c-2.2,0-3.5-1.2-3.5-3.4c0-1.4,2.2-6.7,3.5-6.7s3.5,5.3,3.5,6.7C8.6,17.7,7.2,19,5.1,19z M5.1,10     c-0.7,0.7-2.5,4.3-2.5,5.6c0,1.6,0.8,2.4,2.5,2.4c0.6,0,2.5-0.2,2.5-2.4C7.6,14.3,5.8,10.7,5.1,10z" fill="#231F20"/></g><g><rect fill="#231F20" height="11.4" transform="matrix(0.7052 0.7091 -0.7091 0.7052 26.8207 -10.4769)" width="1" x="25.5" y="21.3"/></g><g><path d="M20.4,19.1c-0.1,0-0.3,0-0.4-0.1c-0.2-0.2-0.2-0.5,0-0.7l2.6-2.6c0.2-0.2,0.5-0.2,0.7,0     c0.2,0.2,0.2,0.5,0,0.7l-2.6,2.6C20.7,19,20.5,19.1,20.4,19.1z" fill="#231F20"/></g><g><path d="M24.7,23.4c-0.1,0-0.3,0-0.4-0.1c-0.2-0.2-0.2-0.5,0-0.7l2.6-2.6c0.2-0.2,0.5-0.2,0.7,0     c0.2,0.2,0.2,0.5,0,0.7l-2.6,2.6C25,23.3,24.8,23.4,24.7,23.4z" fill="#231F20"/></g><g><path d="M21.8,22.2c-0.1,0-0.3,0-0.4-0.1c-0.2-0.2-0.2-0.5,0-0.7l3.4-3.4c0.2-0.2,0.5-0.2,0.7,0     c0.2,0.2,0.2,0.5,0,0.7l-3.4,3.4C22.1,22.1,21.9,22.2,21.8,22.2z" fill="#231F20"/></g><g><path d="M14.9,16.5c-0.1,0-0.3,0-0.4-0.1L4.7,6.5C4.5,6.3,4.5,6,4.7,5.8s0.5-0.2,0.7,0l9.9,9.9     c0.2,0.2,0.2,0.5,0,0.7C15.2,16.5,15.1,16.5,14.9,16.5z" fill="#231F20"/></g><g><rect fill="#231F20" height="1" transform="matrix(0.7071 0.7071 -0.7071 0.7071 33.7778 -13.4031)" width="18.1" x="24" y="33.6"/></g><g><path d="M35.3,45.1c-0.1,0-0.3,0-0.4-0.1c-0.2-0.2-0.2-0.5,0-0.7l8.6-8.6c0.2-0.2,0.5-0.2,0.7,0s0.2,0.5,0,0.7     l-8.6,8.6C35.6,45,35.5,45.1,35.3,45.1z" fill="#231F20"/></g><g><path d="M32,41.1c-0.5,0-1.1-0.2-1.4-0.6L11.8,21.7c-0.8-0.8-0.8-2.1,0-2.9l6.1-6.1c0.8-0.8,2.1-0.8,2.9,0     l18.7,18.7c0.8,0.8,0.8,2.1,0,2.9l-1.7,1.7l-0.7-0.7l1.7-1.7c0.4-0.4,0.4-1.1,0-1.5L20,13.5c-0.4-0.4-1.1-0.4-1.5,0l-6.1,6.1     c-0.4,0.4-0.4,1.1,0,1.5l18.7,18.7c0.4,0.4,1.1,0.4,1.5,0l1.6-1.6l0.7,0.7l-1.6,1.6C33,40.9,32.5,41.1,32,41.1z" fill="#231F20"/></g></g></g></svg>